<?xml version="1.0"?>
<svg xmlns="http://www.w3.org/2000/svg" xmlns:xlink="http://www.w3.org/1999/xlink" xmlns:svgjs="http://svgjs.com/svgjs" version="1.1" width="512" height="512" x="0" y="0" viewBox="0 0 128 128" style="enable-background:new 0 0 512 512" xml:space="preserve" class=""><g><g xmlns="http://www.w3.org/2000/svg" id="Circle_Grid" data-name="Circle Grid"><circle cx="64" cy="64" fill="#3aafa9" r="64" data-original="#f6c863" style=""/></g><g xmlns="http://www.w3.org/2000/svg" id="icon"><path d="m42.547 40.716v2.86h-9.22v-2.86a1.907 1.907 0 0 1 1.907-1.907h5.406a1.907 1.907 0 0 1 1.907 1.907z" fill="#ff843b" data-original="#575b6d" style="" class=""/><path d="m86.4 35.847 3.659 8.683h-27.807l3.659-8.683a1.907 1.907 0 0 1 1.757-1.166h16.975a1.907 1.907 0 0 1 1.757 1.166z" fill="#ff843b" data-original="#575b6d" style="" class=""/><path d="m105 46.284v10.164h-82v-10.164a3.813 3.813 0 0 1 3.814-3.814h74.372a3.813 3.813 0 0 1 3.814 3.814z" fill="#dbd8dd" data-original="#dbd8dd" style="" class=""/><path d="m105 56.448v33.058a3.813 3.813 0 0 1 -3.814 3.814h-74.372a3.813 3.813 0 0 1 -3.814-3.814v-33.058z" fill="#ff843b" data-original="#575b6d" style="" class=""/><path d="m23 55.657h82v1.589h-82z" fill="#eeefee" data-original="#eeefee" style="" class=""/><path d="m83.626 69.493a19.626 19.626 0 1 1 -19.626-19.617 19.624 19.624 0 0 1 19.626 19.617z" fill="#eeefee" data-original="#eeefee" style="" class=""/><path d="m64 87.295a17.8 17.8 0 1 1 17.8-17.8 17.822 17.822 0 0 1 -17.8 17.8z" fill="#414451" data-original="#414451" style="" class=""/><path d="m64 85.388a15.89 15.89 0 1 1 15.895-15.895 15.912 15.912 0 0 1 -15.895 15.895z" fill="#69b0ee" data-original="#69b0ee" style=""/><path d="m64 77.76a8.262 8.262 0 1 1 8.267-8.267 8.276 8.276 0 0 1 -8.267 8.267z" fill="#419be9" data-original="#419be9" style="" class=""/><circle cx="69.053" cy="62.967" fill="#eeefee" r="3.366" data-original="#eeefee" style="" class=""/><circle cx="59.597" cy="76.553" fill="#eeefee" r="1.285" data-original="#eeefee" style="" class=""/><g fill="#bbbbcd"><rect height="5.602" rx=".953" width="14.779" x="85.453" y="46.718" fill="#bbbbcd" data-original="#bbbbcd" style="" class=""/><path d="m34.556 64.953a2.384 2.384 0 1 1 -2.384-2.384 2.378 2.378 0 0 1 2.384 2.384z" fill="#bbbbcd" data-original="#bbbbcd" style="" class=""/></g></g></g></svg>
