<?xml version="1.0"?>
<svg xmlns="http://www.w3.org/2000/svg" xmlns:xlink="http://www.w3.org/1999/xlink" xmlns:svgjs="http://svgjs.com/svgjs" version="1.1" width="512" height="512" x="0" y="0" viewBox="0 0 512 512" style="enable-background:new 0 0 512 512" xml:space="preserve" class=""><g><g xmlns="http://www.w3.org/2000/svg"><g fill="#57a4ff"><path d="m476 112h-166.46c7.89 8.81 17.17 16 26.46 16h16a16 16 0 0 1 16 16v32a16 16 0 0 1 -16 16h-16v8a63.969 63.969 0 0 1 -32 55.44v-71.44l-48-8-48 8v71.44a63.969 63.969 0 0 1 -32-55.44v-8h-16a16 16 0 0 1 -16-16v-32a16 16 0 0 1 16-16h16s27.93-6.45 55.96-16h-195.96a19.994 19.994 0 0 0 -20 20v260h64v-8.64a80 80 0 0 1 61.68-77.87l74.32-17.49v-24h80v24l74.32 17.49a80 80 0 0 1 61.68 77.87v8.64h64v-260a19.994 19.994 0 0 0 -20-20zm-300 224a16 16 0 1 0 16 16 16 16 0 0 0 -16-16z" fill="#3aafa9" data-original="#57a4ff" style="" class=""/><path d="m216 256h80v8h-80z" fill="#3aafa9" data-original="#57a4ff" style="" class=""/><circle cx="176" cy="352" r="16" fill="#3aafa9" data-original="#57a4ff" style="" class=""/><g><path d="m304 184v80h-96v-80l48-8z" fill="#17252a" data-original="#000000" style="" class=""/><circle cx="176" cy="352" r="16" fill="#17252a" data-original="#000000" style="" class=""/></g><path d="m352 96v32h-16c-9.29 0-18.57-7.19-26.46-16-12.52-13.96-21.54-32-21.54-32-3.85 11.56-29.99 23.12-56.04 32-28.03 9.55-55.96 16-55.96 16h-16v-32a80 80 0 0 1 80-80h32a80 80 0 0 1 80 80z" fill="#3aafa9" data-original="#57a4ff" style="" class=""/><path d="m312 472h-112l8-40h95z" fill="#3aafa9" data-original="#57a4ff" style="" class=""/></g><g fill="#004fac"><circle cx="216" cy="144" r="8" fill="#2b7a78" data-original="#004fac" style="" class=""/><circle cx="296" cy="144" r="8" fill="#2b7a78" data-original="#004fac" style="" class=""/><path d="m476 104h-116v-8a88.1 88.1 0 0 0 -88-88h-32a88.1 88.1 0 0 0 -88 88v8h-116a28.031 28.031 0 0 0 -28 28v280a28.031 28.031 0 0 0 28 28h162.24l-4.8 24h-25.44a8 8 0 0 0 -8 8v16h-40a8 8 0 0 0 0 16h256a8 8 0 0 0 0-16h-24v-16a8 8 0 0 0 -8-8h-25.6l-5.4-24h163a28.031 28.031 0 0 0 28-28v-280a28.031 28.031 0 0 0 -28-28zm-116 40v32a8.011 8.011 0 0 1 -8 8h-8v-48h8a8.011 8.011 0 0 1 8 8zm-192-48a72.083 72.083 0 0 1 72-72h32a72.083 72.083 0 0 1 72 72v24h-8c-14.36 0-33.72-29.36-40.84-43.58a8 8 0 0 0 -14.75 1.05c-.62 1.87-6.15 12-53.84 27.91-23.64 7.88-46.81 13.51-51.5 14.62h-7.07zm133.25 79.43-43.93-7.32a7.8 7.8 0 0 0 -2.64 0l-43.93 7.32-26.75-26.74v-14.39c9.37-2.33 28.08-7.23 47.53-13.71 31.2-10.4 47.08-19.15 55.36-26.23 2.58 4.25 5.88 9.33 9.71 14.44 10.7 14.27 21.23 22.96 31.4 25.98v13.91zm26.75-4.12v28.69a56.2 56.2 0 0 1 -16 39.17v-51.86zm-24 204.69h16a8 8 0 0 0 0-16h-6.63a24 24 0 0 1 45.26 0h-6.63a8 8 0 0 0 0 16h16a8 8 0 0 0 8-8 40.069 40.069 0 0 0 -32-39.2v-21.29l24.49 5.77a71.71 71.71 0 0 1 55.51 70.08v.64h-336v-.64a71.71 71.71 0 0 1 55.51-70.08l24.49-5.77v20.49a8.451 8.451 0 0 0 .12 1.34 24 24 0 1 0 15.76 0 8.451 8.451 0 0 0 .12-1.34v-24c0-.08-.01-.16-.01-.25l25.46-5.99c5.24 17.36 24.12 30.24 46.55 30.24s41.31-12.88 46.55-30.24l25.46 5.99c0 .09-.01.17-.01.25v24.8a40.069 40.069 0 0 0 -32 39.2 8 8 0 0 0 8 8zm-128-32a8 8 0 1 1 -8 8 8.011 8.011 0 0 1 8-8zm40-88v-65.22l40-6.67 40 6.67v65.22zm72 16v16c0 13.23-14.36 24-32 24s-32-10.77-32-24v-16zm-88-84.69v51.86a56.2 56.2 0 0 1 -16-39.17v-28.69zm-40-51.31h8v48h-8a8.011 8.011 0 0 1 -8-8v-32a8.011 8.011 0 0 1 8-8zm-136-4a12.01 12.01 0 0 1 12-12h116v1.38a24.031 24.031 0 0 0 -16 22.62v32a24.032 24.032 0 0 0 24 24h8a72.256 72.256 0 0 0 32 59.87v4.13a8 8 0 0 0 8 8v9.66l-68.15 16.04a87.661 87.661 0 0 0 -67.85 85.66v.64h-48zm312 348v8h-160v-8zm-126.24-16 4.8-24h82.04l5.4 24zm278.24-52a12.01 12.01 0 0 1 -12 12h-440a12.01 12.01 0 0 1 -12-12v-12h464zm0-28h-48v-.64a87.661 87.661 0 0 0 -67.85-85.66l-68.15-16.04v-9.66a8 8 0 0 0 8-8v-4.13a72.256 72.256 0 0 0 32-59.87h8a24.032 24.032 0 0 0 24-24v-32a24.031 24.031 0 0 0 -16-22.62v-1.38h116a12.01 12.01 0 0 1 12 12z" fill="#2b7a78" data-original="#004fac" style="" class=""/><path d="m408 488h-8a8 8 0 0 0 0 16h8a8 8 0 0 0 0-16z" fill="#2b7a78" data-original="#004fac" style="" class=""/></g></g></g></svg>
