<?xml version="1.0"?>
<svg xmlns="http://www.w3.org/2000/svg" xmlns:xlink="http://www.w3.org/1999/xlink" xmlns:svgjs="http://svgjs.com/svgjs" version="1.1" width="512" height="512" x="0" y="0" viewBox="0 0 512 512" style="enable-background:new 0 0 512 512" xml:space="preserve" class=""><g><g xmlns="http://www.w3.org/2000/svg"><path d="m407.322 488h-39.322l-16-16 .238-432 125.976 22.27a10 10 0 0 1 8.117 11.53l-69.151 405.88a10 10 0 0 1 -9.858 8.32z" fill="#2b7a78" data-original="#fdbf44" style="" class=""/><path d="m352.238 40-.238 432 16 16h16v-442.385z" fill="#1c5654" data-original="#e6ad3e" style="" class=""/><g><rect fill="#3aafa9" height="464" rx="10" width="344" x="24" y="24" data-original="#25b1fa" style="" class=""/><rect fill="#fcfeff" height="80" rx="20" width="80" x="64" y="256" data-original="#fcfeff" style="" class=""/><rect fill="#fcfeff" height="80" rx="20" width="80" x="64" y="376" data-original="#fcfeff" style="" class=""/><g><path d="m112 320a8 8 0 0 1 -5.657-2.343l-24-24 11.314-11.314 17.891 17.891 42.378-49.441 12.148 10.414-48 56a8 8 0 0 1 -5.767 2.787c-.102.006-.207.006-.307.006z" fill="#80daff" data-original="#80daff" style="" class=""/><path d="m112 440a8 8 0 0 1 -5.657-2.343l-24-24 11.314-11.314 17.891 17.891 42.378-49.441 12.148 10.414-48 56a8 8 0 0 1 -5.767 2.787c-.102.006-.207.006-.307.006z" fill="#80daff" data-original="#80daff" style="" class=""/><g fill="#fcfeff"><path d="m184 368h120v16h-120z" fill="#fcfeff" data-original="#fcfeff" style="" class=""/><path d="m184 408h40v16h-40z" fill="#fcfeff" data-original="#fcfeff" style="" class=""/></g></g><g fill="#fcfeff"><path d="m240 408h64v16h-64z" fill="#fcfeff" data-original="#fcfeff" style="" class=""/><path d="m184 248h120v16h-120z" fill="#fcfeff" data-original="#fcfeff" style="" class=""/><path d="m184 288h40v16h-40z" fill="#fcfeff" data-original="#fcfeff" style="" class=""/><path d="m240 288h64v16h-64z" fill="#fcfeff" data-original="#fcfeff" style="" class=""/><path d="m199.9 56-71.9 32.061 5.993 38.05a122.979 122.979 0 0 0 48.531 77.107l17.441 12.845 16.616-12.079a122.937 122.937 0 0 0 49.164-77.559l6.055-38.364zm-2.435 101.717a8 8 0 0 1 -11.313 0l-24-24 11.314-11.317 18.344 18.343 42.343-42.343 11.313 11.313z" fill="#fcfeff" data-original="#fcfeff" style="" class=""/><path d="m56 48h48v16h-48z" fill="#fcfeff" data-original="#fcfeff" style="" class=""/><path d="m56 80h32v16h-32z" fill="#fcfeff" data-original="#fcfeff" style="" class=""/><path d="m296 48h16v16h-16z" fill="#fcfeff" data-original="#fcfeff" style="" class=""/><path d="m328 48h16v16h-16z" fill="#fcfeff" data-original="#fcfeff" style="" class=""/></g></g></g></g></svg>
